<mxfile host="app.diagrams.net" modified="2023-10-12T13:53:19.484Z" agent="Mozilla/5.0 (Macintosh; Intel Mac OS X 10_15_7) AppleWebKit/537.36 (KHTML, like Gecko) Chrome/116.0.0.0 Safari/537.36" etag="gXIcMsu_elSL6bAXI1yv" version="22.0.4" type="device">
  <diagram name="Page-1" id="_EwptNm45dGNgEdW7AMa">
    <mxGraphModel dx="1223" dy="695" grid="1" gridSize="10" guides="1" tooltips="1" connect="1" arrows="1" fold="1" page="1" pageScale="1" pageWidth="850" pageHeight="1100" math="0" shadow="0">
      <root>
        <mxCell id="0" />
        <mxCell id="1" parent="0" />
        <mxCell id="1b9vMPXUR4SoKdh9D7f5-7" value="" style="rounded=1;whiteSpace=wrap;html=1;" parent="1" vertex="1">
          <mxGeometry x="280" y="160" width="280" height="460" as="geometry" />
        </mxCell>
        <mxCell id="1b9vMPXUR4SoKdh9D7f5-44" style="edgeStyle=orthogonalEdgeStyle;rounded=0;orthogonalLoop=1;jettySize=auto;html=1;exitX=1;exitY=0.5;exitDx=0;exitDy=0;" parent="1" source="1b9vMPXUR4SoKdh9D7f5-21" target="1b9vMPXUR4SoKdh9D7f5-43" edge="1">
          <mxGeometry relative="1" as="geometry" />
        </mxCell>
        <mxCell id="1b9vMPXUR4SoKdh9D7f5-21" value="" style="rounded=1;whiteSpace=wrap;html=1;" parent="1" vertex="1">
          <mxGeometry x="300" y="340" width="240" height="260" as="geometry" />
        </mxCell>
        <mxCell id="1b9vMPXUR4SoKdh9D7f5-1" value="&lt;h1&gt;&lt;font style=&quot;font-size: 36px;&quot;&gt;Calculator&amp;nbsp;&lt;/font&gt;&lt;/h1&gt;" style="text;html=1;strokeColor=none;fillColor=none;align=center;verticalAlign=middle;whiteSpace=wrap;rounded=0;" parent="1" vertex="1">
          <mxGeometry x="20" y="30" width="230" height="90" as="geometry" />
        </mxCell>
        <mxCell id="1b9vMPXUR4SoKdh9D7f5-2" value="&lt;b&gt;Display&lt;/b&gt;&lt;br&gt;Displays the current equation or value" style="rounded=1;whiteSpace=wrap;html=1;fillColor=#dae8fc;strokeColor=#6c8ebf;" parent="1" vertex="1">
          <mxGeometry x="40" y="160" width="170" height="50" as="geometry" />
        </mxCell>
        <mxCell id="1b9vMPXUR4SoKdh9D7f5-3" value="&lt;h3&gt;Classes&lt;/h3&gt;" style="text;html=1;strokeColor=none;fillColor=none;align=center;verticalAlign=middle;whiteSpace=wrap;rounded=0;" parent="1" vertex="1">
          <mxGeometry x="40" y="120" width="160" height="30" as="geometry" />
        </mxCell>
        <mxCell id="Qo8Ixr9VsxoPsw2oQOY7-46" style="edgeStyle=orthogonalEdgeStyle;rounded=0;orthogonalLoop=1;jettySize=auto;html=1;exitX=0;exitY=0.5;exitDx=0;exitDy=0;entryX=0;entryY=0.5;entryDx=0;entryDy=0;" edge="1" parent="1" source="1b9vMPXUR4SoKdh9D7f5-4" target="Qo8Ixr9VsxoPsw2oQOY7-45">
          <mxGeometry relative="1" as="geometry" />
        </mxCell>
        <mxCell id="1b9vMPXUR4SoKdh9D7f5-4" value="&lt;b&gt;Function:&lt;br&gt;&lt;/b&gt;Performs a method on current equation" style="rounded=1;whiteSpace=wrap;html=1;fillColor=#ffe6cc;strokeColor=#d79b00;" parent="1" vertex="1">
          <mxGeometry x="40" y="230" width="170" height="50" as="geometry" />
        </mxCell>
        <mxCell id="Qo8Ixr9VsxoPsw2oQOY7-47" style="edgeStyle=orthogonalEdgeStyle;rounded=0;orthogonalLoop=1;jettySize=auto;html=1;exitX=0;exitY=0.5;exitDx=0;exitDy=0;entryX=0;entryY=0.75;entryDx=0;entryDy=0;" edge="1" parent="1" source="1b9vMPXUR4SoKdh9D7f5-5" target="Qo8Ixr9VsxoPsw2oQOY7-45">
          <mxGeometry relative="1" as="geometry" />
        </mxCell>
        <mxCell id="1b9vMPXUR4SoKdh9D7f5-5" value="&lt;b&gt;Operator:&lt;br&gt;&lt;/b&gt;Inputs the operation to use in the current equation" style="rounded=1;whiteSpace=wrap;html=1;fillColor=#d5e8d4;strokeColor=#82b366;" parent="1" vertex="1">
          <mxGeometry x="40" y="300" width="170" height="50" as="geometry" />
        </mxCell>
        <mxCell id="Qo8Ixr9VsxoPsw2oQOY7-48" style="edgeStyle=orthogonalEdgeStyle;rounded=0;orthogonalLoop=1;jettySize=auto;html=1;exitX=0;exitY=0.5;exitDx=0;exitDy=0;entryX=0;entryY=0.5;entryDx=0;entryDy=0;" edge="1" parent="1" source="1b9vMPXUR4SoKdh9D7f5-6" target="Qo8Ixr9VsxoPsw2oQOY7-45">
          <mxGeometry relative="1" as="geometry" />
        </mxCell>
        <mxCell id="1b9vMPXUR4SoKdh9D7f5-6" value="&lt;b&gt;Value:&lt;br&gt;&lt;/b&gt;Inputs the value to use in the equation&amp;nbsp;" style="rounded=1;whiteSpace=wrap;html=1;fillColor=#e1d5e7;strokeColor=#9673a6;" parent="1" vertex="1">
          <mxGeometry x="40" y="360" width="170" height="50" as="geometry" />
        </mxCell>
        <mxCell id="1b9vMPXUR4SoKdh9D7f5-42" style="edgeStyle=orthogonalEdgeStyle;rounded=0;orthogonalLoop=1;jettySize=auto;html=1;exitX=1;exitY=0.5;exitDx=0;exitDy=0;entryX=0.5;entryY=1;entryDx=0;entryDy=0;" parent="1" source="1b9vMPXUR4SoKdh9D7f5-8" target="1b9vMPXUR4SoKdh9D7f5-41" edge="1">
          <mxGeometry relative="1" as="geometry" />
        </mxCell>
        <mxCell id="1b9vMPXUR4SoKdh9D7f5-8" value="" style="rounded=1;whiteSpace=wrap;html=1;fillColor=#dae8fc;strokeColor=#6c8ebf;" parent="1" vertex="1">
          <mxGeometry x="300" y="190" width="240" height="140" as="geometry" />
        </mxCell>
        <mxCell id="1b9vMPXUR4SoKdh9D7f5-9" value="Current equation" style="rounded=1;whiteSpace=wrap;html=1;fillColor=#dae8fc;strokeColor=#6c8ebf;" parent="1" vertex="1">
          <mxGeometry x="310" y="200" width="220" height="30" as="geometry" />
        </mxCell>
        <mxCell id="1b9vMPXUR4SoKdh9D7f5-10" value="current&lt;br&gt;value" style="rounded=1;whiteSpace=wrap;html=1;fillColor=#dae8fc;strokeColor=#6c8ebf;" parent="1" vertex="1">
          <mxGeometry x="310" y="240" width="80" height="80" as="geometry" />
        </mxCell>
        <mxCell id="1b9vMPXUR4SoKdh9D7f5-11" value="result" style="rounded=1;whiteSpace=wrap;html=1;fillColor=#dae8fc;strokeColor=#6c8ebf;" parent="1" vertex="1">
          <mxGeometry x="450" y="240" width="80" height="80" as="geometry" />
        </mxCell>
        <mxCell id="1b9vMPXUR4SoKdh9D7f5-13" value="OR" style="text;html=1;strokeColor=none;fillColor=none;align=center;verticalAlign=middle;whiteSpace=wrap;rounded=0;" parent="1" vertex="1">
          <mxGeometry x="390" y="265" width="60" height="30" as="geometry" />
        </mxCell>
        <mxCell id="1b9vMPXUR4SoKdh9D7f5-14" value="C" style="ellipse;whiteSpace=wrap;html=1;aspect=fixed;fillColor=#ffe6cc;strokeColor=#d79b00;" parent="1" vertex="1">
          <mxGeometry x="320" y="350" width="40" height="40" as="geometry" />
        </mxCell>
        <mxCell id="1b9vMPXUR4SoKdh9D7f5-15" value="+/-" style="ellipse;whiteSpace=wrap;html=1;aspect=fixed;fillColor=#ffe6cc;strokeColor=#d79b00;" parent="1" vertex="1">
          <mxGeometry x="373" y="350" width="40" height="40" as="geometry" />
        </mxCell>
        <mxCell id="1b9vMPXUR4SoKdh9D7f5-16" value="%" style="ellipse;whiteSpace=wrap;html=1;aspect=fixed;fillColor=#ffe6cc;strokeColor=#d79b00;" parent="1" vertex="1">
          <mxGeometry x="427" y="350" width="40" height="40" as="geometry" />
        </mxCell>
        <mxCell id="1b9vMPXUR4SoKdh9D7f5-17" value="/" style="ellipse;whiteSpace=wrap;html=1;aspect=fixed;fillColor=#d5e8d4;strokeColor=#82b366;" parent="1" vertex="1">
          <mxGeometry x="480" y="350" width="40" height="40" as="geometry" />
        </mxCell>
        <mxCell id="1b9vMPXUR4SoKdh9D7f5-22" value="7" style="ellipse;whiteSpace=wrap;html=1;aspect=fixed;fillColor=#e1d5e7;strokeColor=#9673a6;" parent="1" vertex="1">
          <mxGeometry x="320" y="400" width="40" height="40" as="geometry" />
        </mxCell>
        <mxCell id="1b9vMPXUR4SoKdh9D7f5-23" value="8" style="ellipse;whiteSpace=wrap;html=1;aspect=fixed;fillColor=#e1d5e7;strokeColor=#9673a6;" parent="1" vertex="1">
          <mxGeometry x="373" y="400" width="40" height="40" as="geometry" />
        </mxCell>
        <mxCell id="1b9vMPXUR4SoKdh9D7f5-24" value="X" style="ellipse;whiteSpace=wrap;html=1;aspect=fixed;fillColor=#d5e8d4;strokeColor=#82b366;" parent="1" vertex="1">
          <mxGeometry x="480" y="400" width="40" height="40" as="geometry" />
        </mxCell>
        <mxCell id="1b9vMPXUR4SoKdh9D7f5-25" value="9" style="ellipse;whiteSpace=wrap;html=1;aspect=fixed;fillColor=#e1d5e7;strokeColor=#9673a6;" parent="1" vertex="1">
          <mxGeometry x="427" y="400" width="40" height="40" as="geometry" />
        </mxCell>
        <mxCell id="1b9vMPXUR4SoKdh9D7f5-26" value="4" style="ellipse;whiteSpace=wrap;html=1;aspect=fixed;fillColor=#e1d5e7;strokeColor=#9673a6;" parent="1" vertex="1">
          <mxGeometry x="320" y="450" width="40" height="40" as="geometry" />
        </mxCell>
        <mxCell id="1b9vMPXUR4SoKdh9D7f5-27" value="5" style="ellipse;whiteSpace=wrap;html=1;aspect=fixed;fillColor=#e1d5e7;strokeColor=#9673a6;" parent="1" vertex="1">
          <mxGeometry x="373" y="450" width="40" height="40" as="geometry" />
        </mxCell>
        <mxCell id="1b9vMPXUR4SoKdh9D7f5-28" value="6" style="ellipse;whiteSpace=wrap;html=1;aspect=fixed;fillColor=#e1d5e7;strokeColor=#9673a6;" parent="1" vertex="1">
          <mxGeometry x="427" y="450" width="40" height="40" as="geometry" />
        </mxCell>
        <mxCell id="1b9vMPXUR4SoKdh9D7f5-29" value="-" style="ellipse;whiteSpace=wrap;html=1;aspect=fixed;fillColor=#d5e8d4;strokeColor=#82b366;" parent="1" vertex="1">
          <mxGeometry x="480" y="450" width="40" height="40" as="geometry" />
        </mxCell>
        <mxCell id="1b9vMPXUR4SoKdh9D7f5-30" value="1" style="ellipse;whiteSpace=wrap;html=1;aspect=fixed;fillColor=#e1d5e7;strokeColor=#9673a6;" parent="1" vertex="1">
          <mxGeometry x="320" y="500" width="40" height="40" as="geometry" />
        </mxCell>
        <mxCell id="1b9vMPXUR4SoKdh9D7f5-31" value="2" style="ellipse;whiteSpace=wrap;html=1;aspect=fixed;fillColor=#e1d5e7;strokeColor=#9673a6;" parent="1" vertex="1">
          <mxGeometry x="373" y="500" width="40" height="40" as="geometry" />
        </mxCell>
        <mxCell id="1b9vMPXUR4SoKdh9D7f5-32" value="+" style="ellipse;whiteSpace=wrap;html=1;aspect=fixed;fillColor=#d5e8d4;strokeColor=#82b366;" parent="1" vertex="1">
          <mxGeometry x="480" y="500" width="40" height="40" as="geometry" />
        </mxCell>
        <mxCell id="1b9vMPXUR4SoKdh9D7f5-33" value="3" style="ellipse;whiteSpace=wrap;html=1;aspect=fixed;fillColor=#e1d5e7;strokeColor=#9673a6;" parent="1" vertex="1">
          <mxGeometry x="427" y="500" width="40" height="40" as="geometry" />
        </mxCell>
        <mxCell id="1b9vMPXUR4SoKdh9D7f5-36" value="=" style="ellipse;whiteSpace=wrap;html=1;aspect=fixed;fillColor=#ffe6cc;strokeColor=#d79b00;" parent="1" vertex="1">
          <mxGeometry x="480" y="550" width="40" height="40" as="geometry" />
        </mxCell>
        <mxCell id="1b9vMPXUR4SoKdh9D7f5-37" value="." style="ellipse;whiteSpace=wrap;html=1;aspect=fixed;fillColor=#e1d5e7;strokeColor=#9673a6;" parent="1" vertex="1">
          <mxGeometry x="427" y="550" width="40" height="40" as="geometry" />
        </mxCell>
        <mxCell id="1b9vMPXUR4SoKdh9D7f5-38" value="0" style="rounded=1;whiteSpace=wrap;html=1;fillColor=#e1d5e7;strokeColor=#9673a6;" parent="1" vertex="1">
          <mxGeometry x="320" y="550" width="90" height="40" as="geometry" />
        </mxCell>
        <mxCell id="1b9vMPXUR4SoKdh9D7f5-41" value="Equation display component" style="text;html=1;strokeColor=none;fillColor=none;align=center;verticalAlign=middle;whiteSpace=wrap;rounded=0;" parent="1" vertex="1">
          <mxGeometry x="620" y="200" width="190" height="30" as="geometry" />
        </mxCell>
        <mxCell id="1b9vMPXUR4SoKdh9D7f5-43" value="Equation input component" style="text;html=1;strokeColor=none;fillColor=none;align=center;verticalAlign=middle;whiteSpace=wrap;rounded=0;" parent="1" vertex="1">
          <mxGeometry x="620" y="455" width="190" height="30" as="geometry" />
        </mxCell>
        <mxCell id="1b9vMPXUR4SoKdh9D7f5-45" value="&lt;b&gt;Considerations on parts not done in this phase:&lt;br&gt;&lt;br&gt;&lt;/b&gt;Will omit live type functionality for now. App will rely only on button clicks&amp;nbsp;&lt;br&gt;&lt;br&gt;Will make calculator small enough so that responsive wont need to be considered much" style="text;html=1;strokeColor=none;fillColor=none;align=left;verticalAlign=middle;whiteSpace=wrap;rounded=0;" parent="1" vertex="1">
          <mxGeometry x="40" y="520" width="190" height="130" as="geometry" />
        </mxCell>
        <mxCell id="1b9vMPXUR4SoKdh9D7f5-46" value="&lt;h3&gt;Test cases&lt;/h3&gt;" style="text;html=1;strokeColor=none;fillColor=none;align=center;verticalAlign=middle;whiteSpace=wrap;rounded=0;" parent="1" vertex="1">
          <mxGeometry x="40" y="670" width="220" height="30" as="geometry" />
        </mxCell>
        <mxCell id="Qo8Ixr9VsxoPsw2oQOY7-2" style="edgeStyle=orthogonalEdgeStyle;rounded=0;orthogonalLoop=1;jettySize=auto;html=1;exitX=1;exitY=0.5;exitDx=0;exitDy=0;" edge="1" parent="1" source="1b9vMPXUR4SoKdh9D7f5-47" target="Qo8Ixr9VsxoPsw2oQOY7-1">
          <mxGeometry relative="1" as="geometry" />
        </mxCell>
        <mxCell id="1b9vMPXUR4SoKdh9D7f5-47" value="Current equation" style="rounded=1;whiteSpace=wrap;html=1;fillColor=#dae8fc;strokeColor=#6c8ebf;" parent="1" vertex="1">
          <mxGeometry x="40" y="710" width="220" height="30" as="geometry" />
        </mxCell>
        <mxCell id="Qo8Ixr9VsxoPsw2oQOY7-1" value="1. Should not display anything if no no valid equation is declared ie. 1 + 1 not just 1 o 1 +&lt;br&gt;2. Should update to show current equation excl result&lt;br&gt;3. Should not display anything after equation result is displayed" style="text;html=1;strokeColor=none;fillColor=none;align=left;verticalAlign=middle;whiteSpace=wrap;rounded=0;" vertex="1" parent="1">
          <mxGeometry x="310" y="690" width="500" height="60" as="geometry" />
        </mxCell>
        <mxCell id="Qo8Ixr9VsxoPsw2oQOY7-5" style="edgeStyle=orthogonalEdgeStyle;rounded=0;orthogonalLoop=1;jettySize=auto;html=1;exitX=1;exitY=0.5;exitDx=0;exitDy=0;" edge="1" parent="1" source="Qo8Ixr9VsxoPsw2oQOY7-3" target="Qo8Ixr9VsxoPsw2oQOY7-4">
          <mxGeometry relative="1" as="geometry" />
        </mxCell>
        <mxCell id="Qo8Ixr9VsxoPsw2oQOY7-3" value="current&lt;br&gt;value" style="rounded=1;whiteSpace=wrap;html=1;fillColor=#dae8fc;strokeColor=#6c8ebf;" vertex="1" parent="1">
          <mxGeometry x="105" y="760" width="80" height="80" as="geometry" />
        </mxCell>
        <mxCell id="Qo8Ixr9VsxoPsw2oQOY7-4" value="1. Should display 0 by default&lt;br&gt;2. Should display current input provided that it is not an operator ie. +,- etc&lt;br&gt;3. Should revert to 0 if &quot;C&quot; is clicked" style="text;html=1;strokeColor=none;fillColor=none;align=left;verticalAlign=middle;whiteSpace=wrap;rounded=0;" vertex="1" parent="1">
          <mxGeometry x="300" y="760" width="500" height="80" as="geometry" />
        </mxCell>
        <mxCell id="Qo8Ixr9VsxoPsw2oQOY7-8" style="edgeStyle=orthogonalEdgeStyle;rounded=0;orthogonalLoop=1;jettySize=auto;html=1;exitX=1;exitY=0.5;exitDx=0;exitDy=0;entryX=0;entryY=0.5;entryDx=0;entryDy=0;" edge="1" parent="1" source="Qo8Ixr9VsxoPsw2oQOY7-6" target="Qo8Ixr9VsxoPsw2oQOY7-7">
          <mxGeometry relative="1" as="geometry" />
        </mxCell>
        <mxCell id="Qo8Ixr9VsxoPsw2oQOY7-6" value="result" style="rounded=1;whiteSpace=wrap;html=1;fillColor=#dae8fc;strokeColor=#6c8ebf;" vertex="1" parent="1">
          <mxGeometry x="105" y="860" width="80" height="80" as="geometry" />
        </mxCell>
        <mxCell id="Qo8Ixr9VsxoPsw2oQOY7-7" value="1. Should display only the result when equation in calculated by pressing &quot;=&quot;&lt;br&gt;2. If displayed, current value should be hidden" style="text;html=1;strokeColor=none;fillColor=none;align=left;verticalAlign=middle;whiteSpace=wrap;rounded=0;" vertex="1" parent="1">
          <mxGeometry x="300" y="860" width="500" height="80" as="geometry" />
        </mxCell>
        <mxCell id="Qo8Ixr9VsxoPsw2oQOY7-20" value="" style="group" vertex="1" connectable="0" parent="1">
          <mxGeometry x="71.5" y="980" width="147" height="190" as="geometry" />
        </mxCell>
        <mxCell id="Qo8Ixr9VsxoPsw2oQOY7-9" value="7" style="ellipse;whiteSpace=wrap;html=1;aspect=fixed;fillColor=#e1d5e7;strokeColor=#9673a6;" vertex="1" parent="Qo8Ixr9VsxoPsw2oQOY7-20">
          <mxGeometry width="40" height="40" as="geometry" />
        </mxCell>
        <mxCell id="Qo8Ixr9VsxoPsw2oQOY7-10" value="8" style="ellipse;whiteSpace=wrap;html=1;aspect=fixed;fillColor=#e1d5e7;strokeColor=#9673a6;" vertex="1" parent="Qo8Ixr9VsxoPsw2oQOY7-20">
          <mxGeometry x="53" width="40" height="40" as="geometry" />
        </mxCell>
        <mxCell id="Qo8Ixr9VsxoPsw2oQOY7-11" value="9" style="ellipse;whiteSpace=wrap;html=1;aspect=fixed;fillColor=#e1d5e7;strokeColor=#9673a6;" vertex="1" parent="Qo8Ixr9VsxoPsw2oQOY7-20">
          <mxGeometry x="107" width="40" height="40" as="geometry" />
        </mxCell>
        <mxCell id="Qo8Ixr9VsxoPsw2oQOY7-12" value="4" style="ellipse;whiteSpace=wrap;html=1;aspect=fixed;fillColor=#e1d5e7;strokeColor=#9673a6;" vertex="1" parent="Qo8Ixr9VsxoPsw2oQOY7-20">
          <mxGeometry y="50" width="40" height="40" as="geometry" />
        </mxCell>
        <mxCell id="Qo8Ixr9VsxoPsw2oQOY7-13" value="5" style="ellipse;whiteSpace=wrap;html=1;aspect=fixed;fillColor=#e1d5e7;strokeColor=#9673a6;" vertex="1" parent="Qo8Ixr9VsxoPsw2oQOY7-20">
          <mxGeometry x="53" y="50" width="40" height="40" as="geometry" />
        </mxCell>
        <mxCell id="Qo8Ixr9VsxoPsw2oQOY7-14" value="6" style="ellipse;whiteSpace=wrap;html=1;aspect=fixed;fillColor=#e1d5e7;strokeColor=#9673a6;" vertex="1" parent="Qo8Ixr9VsxoPsw2oQOY7-20">
          <mxGeometry x="107" y="50" width="40" height="40" as="geometry" />
        </mxCell>
        <mxCell id="Qo8Ixr9VsxoPsw2oQOY7-15" value="1" style="ellipse;whiteSpace=wrap;html=1;aspect=fixed;fillColor=#e1d5e7;strokeColor=#9673a6;" vertex="1" parent="Qo8Ixr9VsxoPsw2oQOY7-20">
          <mxGeometry y="100" width="40" height="40" as="geometry" />
        </mxCell>
        <mxCell id="Qo8Ixr9VsxoPsw2oQOY7-16" value="2" style="ellipse;whiteSpace=wrap;html=1;aspect=fixed;fillColor=#e1d5e7;strokeColor=#9673a6;" vertex="1" parent="Qo8Ixr9VsxoPsw2oQOY7-20">
          <mxGeometry x="53" y="100" width="40" height="40" as="geometry" />
        </mxCell>
        <mxCell id="Qo8Ixr9VsxoPsw2oQOY7-17" value="3" style="ellipse;whiteSpace=wrap;html=1;aspect=fixed;fillColor=#e1d5e7;strokeColor=#9673a6;" vertex="1" parent="Qo8Ixr9VsxoPsw2oQOY7-20">
          <mxGeometry x="107" y="100" width="40" height="40" as="geometry" />
        </mxCell>
        <mxCell id="Qo8Ixr9VsxoPsw2oQOY7-18" value="." style="ellipse;whiteSpace=wrap;html=1;aspect=fixed;fillColor=#e1d5e7;strokeColor=#9673a6;" vertex="1" parent="Qo8Ixr9VsxoPsw2oQOY7-20">
          <mxGeometry x="107" y="150" width="40" height="40" as="geometry" />
        </mxCell>
        <mxCell id="Qo8Ixr9VsxoPsw2oQOY7-19" value="0" style="rounded=1;whiteSpace=wrap;html=1;fillColor=#e1d5e7;strokeColor=#9673a6;" vertex="1" parent="Qo8Ixr9VsxoPsw2oQOY7-20">
          <mxGeometry y="150" width="90" height="40" as="geometry" />
        </mxCell>
        <mxCell id="Qo8Ixr9VsxoPsw2oQOY7-21" value="1. Should update the digit in the equation and reflect in Current value&amp;nbsp;&lt;br&gt;2. Should update the digit in the equation and reflect in Current equation&amp;nbsp;" style="text;html=1;strokeColor=none;fillColor=none;align=left;verticalAlign=middle;whiteSpace=wrap;rounded=0;" vertex="1" parent="1">
          <mxGeometry x="300" y="1035" width="500" height="80" as="geometry" />
        </mxCell>
        <mxCell id="Qo8Ixr9VsxoPsw2oQOY7-22" style="edgeStyle=orthogonalEdgeStyle;rounded=0;orthogonalLoop=1;jettySize=auto;html=1;exitX=1;exitY=0.5;exitDx=0;exitDy=0;" edge="1" parent="1" source="Qo8Ixr9VsxoPsw2oQOY7-14" target="Qo8Ixr9VsxoPsw2oQOY7-21">
          <mxGeometry relative="1" as="geometry" />
        </mxCell>
        <mxCell id="Qo8Ixr9VsxoPsw2oQOY7-27" value="" style="group" vertex="1" connectable="0" parent="1">
          <mxGeometry x="125" y="1210" width="40" height="190" as="geometry" />
        </mxCell>
        <mxCell id="Qo8Ixr9VsxoPsw2oQOY7-23" value="/" style="ellipse;whiteSpace=wrap;html=1;aspect=fixed;fillColor=#d5e8d4;strokeColor=#82b366;" vertex="1" parent="Qo8Ixr9VsxoPsw2oQOY7-27">
          <mxGeometry width="40" height="40" as="geometry" />
        </mxCell>
        <mxCell id="Qo8Ixr9VsxoPsw2oQOY7-30" style="edgeStyle=orthogonalEdgeStyle;rounded=0;orthogonalLoop=1;jettySize=auto;html=1;exitX=1;exitY=0.5;exitDx=0;exitDy=0;" edge="1" parent="Qo8Ixr9VsxoPsw2oQOY7-27" source="Qo8Ixr9VsxoPsw2oQOY7-24">
          <mxGeometry relative="1" as="geometry">
            <mxPoint x="175" y="90" as="targetPoint" />
          </mxGeometry>
        </mxCell>
        <mxCell id="Qo8Ixr9VsxoPsw2oQOY7-24" value="X" style="ellipse;whiteSpace=wrap;html=1;aspect=fixed;fillColor=#d5e8d4;strokeColor=#82b366;" vertex="1" parent="Qo8Ixr9VsxoPsw2oQOY7-27">
          <mxGeometry y="50" width="40" height="40" as="geometry" />
        </mxCell>
        <mxCell id="Qo8Ixr9VsxoPsw2oQOY7-25" value="-" style="ellipse;whiteSpace=wrap;html=1;aspect=fixed;fillColor=#d5e8d4;strokeColor=#82b366;" vertex="1" parent="Qo8Ixr9VsxoPsw2oQOY7-27">
          <mxGeometry y="100" width="40" height="40" as="geometry" />
        </mxCell>
        <mxCell id="Qo8Ixr9VsxoPsw2oQOY7-26" value="+" style="ellipse;whiteSpace=wrap;html=1;aspect=fixed;fillColor=#d5e8d4;strokeColor=#82b366;" vertex="1" parent="Qo8Ixr9VsxoPsw2oQOY7-27">
          <mxGeometry y="150" width="40" height="40" as="geometry" />
        </mxCell>
        <mxCell id="Qo8Ixr9VsxoPsw2oQOY7-28" value="1. Should perform the neccesarry operator on the equation result&amp;nbsp;&lt;br&gt;2. Should reflect in the current equation if clicked&amp;nbsp;&lt;br&gt;3. Should not do anything if equation is not preceded by a number&lt;br&gt;4. Should allow user to enter next input once clicked and reflect next input in display" style="text;html=1;strokeColor=none;fillColor=none;align=left;verticalAlign=middle;whiteSpace=wrap;rounded=0;" vertex="1" parent="1">
          <mxGeometry x="300" y="1265" width="500" height="80" as="geometry" />
        </mxCell>
        <mxCell id="Qo8Ixr9VsxoPsw2oQOY7-29" style="edgeStyle=orthogonalEdgeStyle;rounded=0;orthogonalLoop=1;jettySize=auto;html=1;exitX=1;exitY=0.5;exitDx=0;exitDy=0;entryX=0;entryY=0.5;entryDx=0;entryDy=0;" edge="1" parent="1" source="Qo8Ixr9VsxoPsw2oQOY7-23" target="Qo8Ixr9VsxoPsw2oQOY7-28">
          <mxGeometry relative="1" as="geometry" />
        </mxCell>
        <mxCell id="Qo8Ixr9VsxoPsw2oQOY7-31" style="edgeStyle=orthogonalEdgeStyle;rounded=0;orthogonalLoop=1;jettySize=auto;html=1;exitX=1;exitY=0.5;exitDx=0;exitDy=0;entryX=0;entryY=0.25;entryDx=0;entryDy=0;" edge="1" parent="1" source="Qo8Ixr9VsxoPsw2oQOY7-25" target="Qo8Ixr9VsxoPsw2oQOY7-28">
          <mxGeometry relative="1" as="geometry" />
        </mxCell>
        <mxCell id="Qo8Ixr9VsxoPsw2oQOY7-32" style="edgeStyle=orthogonalEdgeStyle;rounded=0;orthogonalLoop=1;jettySize=auto;html=1;exitX=1;exitY=0.5;exitDx=0;exitDy=0;entryX=0.046;entryY=0.988;entryDx=0;entryDy=0;entryPerimeter=0;" edge="1" parent="1" source="Qo8Ixr9VsxoPsw2oQOY7-26" target="Qo8Ixr9VsxoPsw2oQOY7-28">
          <mxGeometry relative="1" as="geometry" />
        </mxCell>
        <mxCell id="Qo8Ixr9VsxoPsw2oQOY7-35" style="edgeStyle=orthogonalEdgeStyle;rounded=0;orthogonalLoop=1;jettySize=auto;html=1;exitX=1;exitY=0.5;exitDx=0;exitDy=0;" edge="1" parent="1" source="Qo8Ixr9VsxoPsw2oQOY7-33" target="Qo8Ixr9VsxoPsw2oQOY7-34">
          <mxGeometry relative="1" as="geometry" />
        </mxCell>
        <mxCell id="Qo8Ixr9VsxoPsw2oQOY7-33" value="C" style="ellipse;whiteSpace=wrap;html=1;aspect=fixed;fillColor=#ffe6cc;strokeColor=#d79b00;" vertex="1" parent="1">
          <mxGeometry x="125" y="1440" width="40" height="40" as="geometry" />
        </mxCell>
        <mxCell id="Qo8Ixr9VsxoPsw2oQOY7-34" value="1. Resets equation displaying default 0 is display in Result&lt;br&gt;2. Should display nothing for current equation&lt;br&gt;3. Should allow calculation of new equation&amp;nbsp;" style="text;html=1;strokeColor=none;fillColor=none;align=left;verticalAlign=middle;whiteSpace=wrap;rounded=0;" vertex="1" parent="1">
          <mxGeometry x="280" y="1420" width="500" height="80" as="geometry" />
        </mxCell>
        <mxCell id="Qo8Ixr9VsxoPsw2oQOY7-38" style="edgeStyle=orthogonalEdgeStyle;rounded=0;orthogonalLoop=1;jettySize=auto;html=1;exitX=1;exitY=0.5;exitDx=0;exitDy=0;" edge="1" parent="1" source="Qo8Ixr9VsxoPsw2oQOY7-36" target="Qo8Ixr9VsxoPsw2oQOY7-37">
          <mxGeometry relative="1" as="geometry" />
        </mxCell>
        <mxCell id="Qo8Ixr9VsxoPsw2oQOY7-36" value="+/-" style="ellipse;whiteSpace=wrap;html=1;aspect=fixed;fillColor=#ffe6cc;strokeColor=#d79b00;" vertex="1" parent="1">
          <mxGeometry x="125" y="1530" width="40" height="40" as="geometry" />
        </mxCell>
        <mxCell id="Qo8Ixr9VsxoPsw2oQOY7-37" value="1. Should toggle digit to positive or negative and display expected result in Result&lt;br&gt;2. Should display - in Current value and current equation if toggled to negative" style="text;html=1;strokeColor=none;fillColor=none;align=left;verticalAlign=middle;whiteSpace=wrap;rounded=0;" vertex="1" parent="1">
          <mxGeometry x="270" y="1510" width="500" height="80" as="geometry" />
        </mxCell>
        <mxCell id="Qo8Ixr9VsxoPsw2oQOY7-41" style="edgeStyle=orthogonalEdgeStyle;rounded=0;orthogonalLoop=1;jettySize=auto;html=1;exitX=1;exitY=0.5;exitDx=0;exitDy=0;" edge="1" parent="1" source="Qo8Ixr9VsxoPsw2oQOY7-39" target="Qo8Ixr9VsxoPsw2oQOY7-40">
          <mxGeometry relative="1" as="geometry" />
        </mxCell>
        <mxCell id="Qo8Ixr9VsxoPsw2oQOY7-39" value="%" style="ellipse;whiteSpace=wrap;html=1;aspect=fixed;fillColor=#ffe6cc;strokeColor=#d79b00;" vertex="1" parent="1">
          <mxGeometry x="125" y="1600" width="40" height="40" as="geometry" />
        </mxCell>
        <mxCell id="Qo8Ixr9VsxoPsw2oQOY7-40" value="1. Should do nothing if not preceded by a number&lt;br&gt;2. Should calculate result from equation of this point and divide that result by 100 then multiply by last number. Replacing equation with final result and allowing user to enter next input for equation" style="text;html=1;strokeColor=none;fillColor=none;align=left;verticalAlign=middle;whiteSpace=wrap;rounded=0;" vertex="1" parent="1">
          <mxGeometry x="270" y="1580" width="500" height="80" as="geometry" />
        </mxCell>
        <mxCell id="Qo8Ixr9VsxoPsw2oQOY7-44" style="edgeStyle=orthogonalEdgeStyle;rounded=0;orthogonalLoop=1;jettySize=auto;html=1;exitX=1;exitY=0.5;exitDx=0;exitDy=0;" edge="1" parent="1" source="Qo8Ixr9VsxoPsw2oQOY7-42" target="Qo8Ixr9VsxoPsw2oQOY7-43">
          <mxGeometry relative="1" as="geometry" />
        </mxCell>
        <mxCell id="Qo8Ixr9VsxoPsw2oQOY7-42" value="=" style="ellipse;whiteSpace=wrap;html=1;aspect=fixed;fillColor=#ffe6cc;strokeColor=#d79b00;" vertex="1" parent="1">
          <mxGeometry x="125" y="1680" width="40" height="40" as="geometry" />
        </mxCell>
        <mxCell id="Qo8Ixr9VsxoPsw2oQOY7-43" value="1. Should calculate equation and display result in result slot&lt;br&gt;2. Should clear current equation" style="text;html=1;strokeColor=none;fillColor=none;align=left;verticalAlign=middle;whiteSpace=wrap;rounded=0;" vertex="1" parent="1">
          <mxGeometry x="270" y="1670" width="500" height="80" as="geometry" />
        </mxCell>
        <mxCell id="Qo8Ixr9VsxoPsw2oQOY7-45" value="&lt;b&gt;base button&lt;/b&gt;&lt;br&gt;inputs: color&lt;br&gt;Output: { type, value }" style="rounded=1;whiteSpace=wrap;html=1;" vertex="1" parent="1">
          <mxGeometry x="40" y="420" width="170" height="80" as="geometry" />
        </mxCell>
      </root>
    </mxGraphModel>
  </diagram>
</mxfile>
